<?xml version="1.0" encoding="iso-8859-1"?>
<!-- Generator: Adobe Illustrator 28.3.0, SVG Export Plug-In . SVG Version: 6.00 Build 0)  -->
<svg version="1.1" id="Layer_1" xmlns="http://www.w3.org/2000/svg" xmlns:xlink="http://www.w3.org/1999/xlink" x="0px" y="0px"
	 viewBox="0 0 1984.252 1984.252" style="enable-background:new 0 0 1984.252 1984.252;" xml:space="preserve">
<rect x="0" y="0" style="fill:#F6EDDD;" width="1984.252" height="1984.252"/>
<ellipse style="fill:#B8A191;" cx="992.126" cy="1784.892" rx="496.363" ry="49.573"/>
<circle style="fill:#0F1B1F;" cx="992.126" cy="237.658" r="90.383"/>
<circle style="fill:none;stroke:#0F1B1F;stroke-width:141.7323;stroke-miterlimit:10;" cx="992.126" cy="1063.526" r="634.213"/>
<circle style="fill:none;stroke:#0F1B1F;stroke-width:141.7323;stroke-miterlimit:10;" cx="992.126" cy="1063.526" r="424.34"/>
<g>
	<path style="fill:#0F1B1F;stroke:#0F1B1F;stroke-width:14.1732;stroke-miterlimit:10;" d="M809.946,1087.758
		c0-7.679,6.225-13.904,13.904-13.904h18.954c9.837,0,14.764,4.605,14.764,13.811v103.245c0,7.679,6.225,13.904,13.904,13.904
		h268.97c9.837,0,14.764,4.606,14.764,13.811v16.098c0,7.679-6.225,13.904-13.904,13.904H825.184
		c-10.164,0-15.238-4.599-15.238-13.811V1087.758z M836.137,1034.803c-9.844,0-14.763-4.762-14.763-14.286V888.697
		c0-7.679,6.225-13.904,13.904-13.904h18.479c9.837,0,14.763,4.606,14.763,13.811v88.484c0,7.679,6.225,13.904,13.904,13.904
		h222.684c7.679,0,13.904-6.225,13.904-13.904v-88.39c0-7.679,6.225-13.904,13.904-13.904h23.241
		c6.979,0,10.477,3.334,10.477,10.001v136.105c0,7.679-6.225,13.904-13.904,13.904H836.137z M968.928,1211.482v-352.31
		c0-7.679,6.225-13.904,13.904-13.904h19.804c10.098,0,15.149,4.926,15.149,14.763v352.31c0,7.679-6.225,13.904-13.904,13.904
		h-19.319C974.137,1226.244,968.928,1221.325,968.928,1211.482z M1127.361,1266.618v-179.277c0-7.679,6.225-13.904,13.904-13.904
		h17.884c10.104,0,15.157,5.224,15.157,15.656v178.786c0,7.679-6.225,13.904-13.904,13.904h-17.393
		C1132.578,1281.783,1127.361,1276.724,1127.361,1266.618z"/>
</g>
</svg>
