<svg width="516" height="100" viewBox="0 0 516 100" fill="none" xmlns="http://www.w3.org/2000/svg">
<path d="M117.702 0.0366211H104.31V13.0098H117.702V0.0366211Z" fill="black"/>
<path d="M117.585 22.7695H104.31V83.1961H117.585V22.7695Z" fill="black"/>
<path d="M169.947 50.7413C166.104 48.8662 160.786 47.7564 156.051 46.7614C153.489 46.2256 151.043 45.7281 149.141 45.1541C144.289 43.7764 141.339 42.6283 141.572 38.6866C141.65 35.7399 144.833 32.334 153.372 32.334C159.583 32.334 162.766 34.6301 164.125 36.0078C165.444 37.3472 166.182 38.9928 166.143 40.3705V40.7532H179.03V40.4088C179.263 36.2757 177.4 31.7982 173.868 28.1244C169.015 23.0729 161.757 20.2793 153.489 20.2793C138.273 20.2793 128.53 29.5404 127.947 38.4953C127.288 46.1874 131.829 51.966 140.718 54.7979C142.659 55.4484 145.221 55.9842 147.977 56.5582C152.247 57.4767 157.099 58.5099 161.097 60.1938C165.638 62.069 167.463 64.0589 167.075 66.7378C166.259 70.9856 161.252 73.5879 153.955 73.5879C144.328 73.5879 139.36 68.2303 138.855 63.2936V62.9874H125.812V63.3701C126.201 71.1004 132.644 85.7574 154.537 85.7574C168.86 85.7574 180.622 77.1469 181.359 66.1255C181.864 57.7828 175.071 53.3054 169.908 50.6648" fill="black"/>
<path d="M214.28 63.6426L197.084 23.3454H183.188L207.448 80.8253L205.74 84.3078C204.925 86.6422 202.014 88.2112 198.481 88.2112H192.154V99.424H198.714C198.908 99.424 199.141 99.424 199.335 99.424C202.712 99.424 206.788 99.3475 209.777 97.6254C212.106 96.2859 216.298 93.3392 218.006 88.326L244.79 23.3071H231.01L214.28 63.6043V63.6426Z" fill="black"/>
<path d="M281.393 33.1791C291.796 33.1791 298.239 40.9095 298.239 53.3851C298.239 65.8608 291.796 73.5911 281.393 73.5911C270.99 73.5911 264.779 66.0521 264.779 53.3851C264.779 40.7181 270.835 33.1791 281.393 33.1791ZM283.605 21.1627C276.308 21.1627 269.981 23.5736 264.779 28.2807V0H251.271V83.388H264.779V78.2216C270.136 83.1201 276.618 85.7223 283.605 85.7223C300.723 85.7223 312.64 72.443 312.64 53.3851C312.64 34.3272 300.956 21.1627 283.605 21.1627Z" fill="black"/>
<path d="M363.877 54.1898V59.624C363.877 65.2112 356.658 72.0996 345.944 73.4773C343.227 73.8217 334.299 74.4723 333.135 68.3493C332.125 63.2212 335.58 61.0016 341.441 59.0499C343.615 58.3228 347.458 57.7488 351.146 57.213C353.785 56.8303 356.269 56.4859 358.327 56.0267C360.229 55.4909 362.17 54.9552 363.916 54.1898H363.877ZM379.443 82.2792C378.977 81.0928 377.619 77.4956 377.619 73.1329V40.9105C377.619 27.7842 363.606 20.9341 349.748 20.9341C340.238 20.9341 331.66 24.1104 326.808 29.3915C323.469 33.0271 321.994 37.5045 322.46 42.3264V42.6326H335.386V42.2499C335.192 40.1068 335.891 38.0786 337.443 36.433C339.966 33.7159 344.391 32.2617 349.865 32.2617C359.569 32.2617 363.916 36.3565 363.916 40.4512C363.916 44.546 359.957 45.2731 356.463 45.962L355.687 46.115C353.203 46.536 350.602 46.7656 347.807 47.0335C343.227 47.4544 338.453 47.8754 333.95 49.2531C323.081 52.5059 317.686 60.0832 319.044 70.0714C320.286 79.6386 328.438 85.4938 340.199 85.4938C341.131 85.4938 342.101 85.4555 343.111 85.379C350.68 84.7667 358.404 81.4373 363.877 76.424C364.343 79.5238 365.236 81.7051 365.935 83.0063L366.051 83.1976H379.754L379.637 82.7384C379.637 82.7384 379.559 82.5088 379.482 82.2792" fill="black"/>
<path d="M425.556 21.3901C415.154 20.1655 408.399 24.6047 404.091 28.3168V23.4566H390.583V83.3858H404.091V49.556C404.091 40.448 410.185 34.0954 418.958 34.0954C427.73 34.0954 431.224 38.3815 431.224 48.0636L431.34 83.3858H444.732V42.6294C444.732 33.2152 438.017 22.5765 425.556 21.3901Z" fill="black"/>
<path d="M485.956 46.9543L511.07 22.5387H494.457L470.507 44.8112V0.0366211H456.999V83.4246H470.507V60.6929L476.64 55.4117L500.279 83.3098H516L485.956 46.9543Z" fill="black"/>
<path d="M32 83C32 54.8335 54.8335 32 83 32" stroke="#26E5AE" stroke-width="14"/>
<path d="M7 83C7 41.0264 41.0264 7 83 7" stroke="#1B99FB" stroke-width="14"/>
<path d="M58 83C58 69.1929 69.1929 58 83 58" stroke="#FF6200" stroke-width="14"/>
</svg>
